<mxfile host="app.diagrams.net" modified="2024-03-21T23:12:50.620Z" agent="Mozilla/5.0 (X11; Linux x86_64; rv:123.0) Gecko/20100101 Firefox/123.0" etag="hjEkPbBDIZthLqulSCdI" version="24.0.6" type="device">
  <diagram name="modules" id="dM83wHDTcg_KLIO3zpco">
    <mxGraphModel dx="545" dy="303" grid="1" gridSize="10" guides="1" tooltips="1" connect="1" arrows="1" fold="1" page="1" pageScale="1" pageWidth="1169" pageHeight="827" math="0" shadow="0">
      <root>
        <mxCell id="0" />
        <mxCell id="1" parent="0" />
        <mxCell id="90a7S7zL3lL9k81L1QzA-1" value="Business Logic" style="shape=module;align=left;spacingLeft=20;align=center;verticalAlign=top;whiteSpace=wrap;html=1;" vertex="1" parent="1">
          <mxGeometry x="160" width="100" height="50" as="geometry" />
        </mxCell>
        <mxCell id="90a7S7zL3lL9k81L1QzA-5" style="edgeStyle=orthogonalEdgeStyle;rounded=0;orthogonalLoop=1;jettySize=auto;html=1;exitX=1;exitY=0.5;exitDx=0;exitDy=0;entryX=0.095;entryY=0.499;entryDx=0;entryDy=0;entryPerimeter=0;" edge="1" parent="1" source="90a7S7zL3lL9k81L1QzA-2" target="90a7S7zL3lL9k81L1QzA-1">
          <mxGeometry relative="1" as="geometry" />
        </mxCell>
        <mxCell id="90a7S7zL3lL9k81L1QzA-2" value="Data Access" style="shape=module;align=left;spacingLeft=20;align=center;verticalAlign=top;whiteSpace=wrap;html=1;" vertex="1" parent="1">
          <mxGeometry width="100" height="50" as="geometry" />
        </mxCell>
        <mxCell id="90a7S7zL3lL9k81L1QzA-6" style="edgeStyle=orthogonalEdgeStyle;rounded=0;orthogonalLoop=1;jettySize=auto;html=1;entryX=1;entryY=0.5;entryDx=0;entryDy=0;exitX=0.107;exitY=0.499;exitDx=0;exitDy=0;exitPerimeter=0;" edge="1" parent="1" source="90a7S7zL3lL9k81L1QzA-3" target="90a7S7zL3lL9k81L1QzA-1">
          <mxGeometry relative="1" as="geometry">
            <Array as="points" />
          </mxGeometry>
        </mxCell>
        <mxCell id="90a7S7zL3lL9k81L1QzA-3" value="UI" style="shape=module;align=left;spacingLeft=20;align=center;verticalAlign=top;whiteSpace=wrap;html=1;" vertex="1" parent="1">
          <mxGeometry x="320" width="100" height="50" as="geometry" />
        </mxCell>
      </root>
    </mxGraphModel>
  </diagram>
</mxfile>
